<?xml version="1.0" encoding="UTF-8"?>
<svg width="23px" height="23px" viewBox="0 0 23 23" version="1.1" xmlns="http://www.w3.org/2000/svg" xmlns:xlink="http://www.w3.org/1999/xlink">
    <!-- Generator: Sketch 46.2 (44496) - http://www.bohemiancoding.com/sketch -->
    <title>account-circle</title>
    <desc>Created with Sketch.</desc>
    <defs></defs>
    <g id="multi-player-" stroke="none" stroke-width="1" fill="none" fill-rule="evenodd" opacity="0.67261096">
        <g id="Categories" transform="translate(-13.000000, -34.000000)" fill="#000000">
            <g id="account-circle" transform="translate(13.000000, 34.000000)">
                <path d="M11.5,0 C5.175,0 0,5.175 0,11.5 C0,17.825 5.175,23 11.5,23 C17.825,23 23,17.825 23,11.5 C23,5.175 17.825,0 11.5,0 L11.5,0 Z M11.5,3.45 C13.455,3.45 14.95,4.945 14.95,6.9 C14.95,8.855 13.455,10.35 11.5,10.35 C9.545,10.35 8.05,8.855 8.05,6.9 C8.05,4.945 9.545,3.45 11.5,3.45 L11.5,3.45 Z M11.5,19.78 C8.625,19.78 6.095,18.285 4.6,16.1 C4.6,13.8 9.2,12.535 11.5,12.535 C13.8,12.535 18.4,13.8 18.4,16.1 C16.905,18.285 14.375,19.78 11.5,19.78 L11.5,19.78 Z" id="Shape"></path>
            </g>
        </g>
    </g>
</svg>