<?xml version="1.0" encoding="UTF-8"?>
<svg width="87px" height="84px" viewBox="0 0 87 84" version="1.1" xmlns="http://www.w3.org/2000/svg" xmlns:xlink="http://www.w3.org/1999/xlink">
    <!-- Generator: Sketch 46.2 (44496) - http://www.bohemiancoding.com/sketch -->
    <title>account-avatar</title>
    <desc>Created with Sketch.</desc>
    <defs></defs>
    <g id="multi-player-" stroke="none" stroke-width="1" fill="none" fill-rule="evenodd">
        <g id="Start-screen" transform="translate(-20.000000, -164.000000)">
            <g id="account-avatar" transform="translate(21.000000, 165.000000)">
                <g id="profile">
                    <path d="M55.0655798,53.3220085 C54.923115,53.3220085 54.6381852,53.1852674 54.4957203,53.0485263 L54.4957203,53.0485263 C51.6464229,51.9545978 47.7998714,49.7667407 47.7998714,46.8951782 C47.7998714,42.3827229 53.3560014,41.5622765 54.0683257,32.1271427 C54.6381852,24.6063839 50.3642391,19 42.3862062,19 C34.4081734,19 30.1342272,24.6063839 30.7040867,32.1271427 C31.416411,41.6990175 36.9725411,42.3827229 36.9725411,46.8951782 C36.9725411,49.9034817 33.1259895,51.9545978 30.2766921,53.0485263 L30.2766921,53.0485263 C30.1342272,53.1852674 29.8492974,53.1852674 29.7068326,53.3220085 C28.139719,54.0057138 27,55.6466066 27,57.4242405 C27,59.8855798 29.1369731,61.9366958 31.7013408,61.9366958 L42.2437413,61.9366958 L52.7861419,61.9366958 C55.3505096,61.9366958 57.4874827,59.8855798 57.4874827,57.4242405 C57.6299475,55.5098656 56.6326934,54.0057138 55.0655798,53.3220085 L55.0655798,53.3220085 Z" id="Shape" fill="#BBBDBF" opacity="0.85"></path>
                    <ellipse id="Oval" stroke="#D0D2D3" cx="42.7394617" cy="41.0223209" rx="42.7394617" ry="41.0223209"></ellipse>
                </g>
            </g>
        </g>
    </g>
</svg>