<?xml version="1.0" encoding="UTF-8"?>
<svg width="40px" height="40px" viewBox="0 0 40 40" version="1.1" xmlns="http://www.w3.org/2000/svg" xmlns:xlink="http://www.w3.org/1999/xlink">
    <!-- Generator: Sketch 46.2 (44496) - http://www.bohemiancoding.com/sketch -->
    <title>campaign-circle</title>
    <desc>Created with Sketch.</desc>
    <defs>
        <polygon id="path-1" points="12 10.5 12 0 0 0 0 10.5 0 21 12 21"></polygon>
    </defs>
    <g id="multi-player-" stroke="none" stroke-width="1" fill="none" fill-rule="evenodd">
        <g id="Start-screen" transform="translate(-20.000000, -326.000000)">
            <g id="notification-copy" transform="translate(8.000000, 314.000000)">
                <g id="campaign-circle" transform="translate(12.000000, 12.000000)">
                    <circle id="mask" fill-opacity="0.105015851" fill="#000000" cx="20" cy="20" r="20"></circle>
                    <g id="Page-1" opacity="0.394474638" transform="translate(14.000000, 10.000000)">
                        <mask id="mask-2" fill="white">
                            <use xlink:href="#path-1"></use>
                        </mask>
                        <g id="Clip-2"></g>
                        <path d="M10.6688066,7.60677001 L9.37839879,8.517556 L8.88783988,9.98670776 L8.83345921,9.98670776 L8.83345921,9.99111301 L7.29154079,9.99111301 L6.00113293,10.901899 L4.71072508,9.99111301 L3.11669184,9.99111301 L2.62273414,8.51645469 L1.33345921,7.6056687 L1.82628399,6.13101038 L1.33345921,4.65635205 L2.62273414,3.74556607 L3.11669184,2.27090774 L4.71072508,2.27090774 L6.00113293,1.36012176 L7.29154079,2.27090774 L8.88557402,2.27090774 L9.37839879,3.74556607 L10.6688066,4.65635205 L10.1748489,6.13101038 L10.6688066,7.6056687 L10.6688066,7.60677001 Z M6.31495468,17.7884102 C6.12462236,17.6650631 5.87651057,17.6650631 5.68617825,17.7884102 L3.16767372,19.4216576 L3.16767372,11.0935275 L4.34138973,11.0935275 L6,12.2642234 L7.65861027,11.0935275 L8.83232628,11.0935275 L8.83232628,19.4216576 L6.31382175,17.7884102 L6.31495468,17.7884102 Z M12,4.23675174 L10.3413897,3.06605584 L9.70808157,1.17069589 L7.65861027,1.17069589 L6,0 L4.34138973,1.17069589 L2.2907855,1.17069589 L1.65861027,3.06605584 L0,4.23675174 L0.633308157,6.13211169 L0,8.02747164 L1.65861027,9.19816753 L2.0347432,10.3226083 L2.0347432,20.4491828 C2.0347432,20.6518244 2.14916918,20.8390477 2.33383686,20.9359632 C2.5173716,21.0306762 2.74169184,21.019663 2.91503021,20.9073291 L6,18.9084457 L9.08496979,20.9073291 C9.18013595,20.9690026 9.28889728,20.9998394 9.39879154,20.9998394 C9.49055891,20.9998394 9.58232628,20.9789144 9.66616314,20.9359632 C9.85083082,20.8390477 9.9652568,20.6529257 9.9652568,20.4491828 L9.9652568,10.3226083 L10.3413897,9.19816753 L12,8.02747164 L11.3666918,6.13211169 L12,4.23675174 Z" id="Fill-1" fill="#000000" mask="url(#mask-2)"></path>
                    </g>
                </g>
            </g>
        </g>
    </g>
</svg>