<?xml version="1.0" encoding="UTF-8"?>
<svg width="40px" height="42px" viewBox="0 0 40 42" version="1.1" xmlns="http://www.w3.org/2000/svg" xmlns:xlink="http://www.w3.org/1999/xlink">
    <!-- Generator: Sketch 46.2 (44496) - http://www.bohemiancoding.com/sketch -->
    <title>fewer-powerup</title>
    <desc>Created with Sketch.</desc>
    <defs>
        <rect id="path-1" x="0" y="0" width="40" height="40" rx="8"></rect>
    </defs>
    <g id="onboarding" stroke="none" stroke-width="1" fill="none" fill-rule="evenodd">
        <g id="Question-Tutorial" transform="translate(-246.000000, -587.000000)">
            <g id="Group-19" transform="translate(74.000000, 587.000000)">
                <g id="fewer-powerup" transform="translate(172.000000, 0.000000)">
                    <g id="Rectangle-4-Copy-2">
                        <use fill="#989595" fill-rule="evenodd" xlink:href="#path-1"></use>
                        <rect stroke="#979797" stroke-width="1" x="0.5" y="0.5" width="39" height="39" rx="8"></rect>
                    </g>
                    <g id="Group-9-Copy-2" transform="translate(0.000000, 29.000000)">
                        <rect id="Rectangle-7" fill="#777575" x="0" y="0" width="40" height="13" rx="6.5"></rect>
                        <text id="100" opacity="0.806272645" font-family="Roboto-Bold, Roboto" font-size="10" font-weight="bold" fill="#FFFFFF">
                            <tspan x="8.64892578" y="10"> 100</tspan>
                        </text>
                    </g>
                    <g id="Group-13" transform="translate(11.000000, 6.000000)" fill="#FFFFFF">
                        <g id="Group-6">
                            <g id="Page-1">
                                <path d="M9.5,18 C4.813,18 1,14.187 1,9.5 C1,4.812 4.813,1 9.5,1 C14.187,1 18,4.812 18,9.5 C18,14.187 14.187,18 9.5,18 M16.218,2.782 C14.424,0.988 12.038,0 9.5,0 C6.962,0 4.577,0.988 2.782,2.782 C0.986,4.576 0,6.962 0,9.499 C0,12.036 0.988,14.422 2.782,16.217 C4.576,18.012 6.962,18.999 9.5,18.999 C12.038,18.999 14.423,18.011 16.218,16.217 C18.014,14.423 19,12.037 19,9.499 C19,6.961 18.012,4.576 16.218,2.782" id="Fill-1"></path>
                                <path d="M15.5,10 L3.5,10 C3.225,10 3,9.776 3,9.5 C3,9.224 3.225,9 3.5,9 L15.5,9 C15.775,9 16,9.224 16,9.5 C16,9.776 15.775,10 15.5,10" id="Fill-3"></path>
                            </g>
                        </g>
                    </g>
                </g>
            </g>
        </g>
    </g>
</svg>