<?xml version="1.0" encoding="UTF-8"?>
<svg width="40px" height="40px" viewBox="0 0 40 40" version="1.1" xmlns="http://www.w3.org/2000/svg" xmlns:xlink="http://www.w3.org/1999/xlink">
    <!-- Generator: Sketch 46.2 (44496) - http://www.bohemiancoding.com/sketch -->
    <title>game-circle</title>
    <desc>Created with Sketch.</desc>
    <defs></defs>
    <g id="multi-player-" stroke="none" stroke-width="1" fill="none" fill-rule="evenodd">
        <g id="Start-screen" transform="translate(-20.000000, -399.000000)" fill="#000000">
            <g id="Group-2" transform="translate(8.000000, 387.000000)">
                <g id="notification-copy-2">
                    <g id="game-circle" transform="translate(12.000000, 12.000000)">
                        <circle id="mask" fill-opacity="0.105015851" cx="20" cy="20" r="20"></circle>
                        <g id="Page-1" opacity="0.389945652" transform="translate(10.000000, 12.000000)">
                            <path d="M7,13.5029 C7.001,13.7779 7.225,13.9999 7.5,13.9999 L18.5,13.9999 C18.775,13.9999 18.999,13.7769 19,13.5029 C18.999,13.4679 18.968,12.6079 18.261,11.7689 C17.287,10.6119 15.468,10.0009 13,10.0009 C10.532,10.0009 8.713,10.6129 7.739,11.7689 C7.032,12.6089 7.001,13.4679 7,13.5029 M18.5,14.9999 L7.5,14.9999 C6.673,14.9999 6,14.3269 6,13.4999 C6,13.4519 6.011,12.3099 6.924,11.1849 C7.449,10.5389 8.165,10.0269 9.052,9.6629 C10.123,9.2229 11.452,9.0009 13,9.0009 C14.548,9.0009 15.876,9.2239 16.948,9.6629 C17.835,10.0269 18.551,10.5389 19.076,11.1849 C19.99,12.3099 20,13.4519 20,13.4999 C20,14.3269 19.327,14.9999 18.5,14.9999" id="Fill-1"></path>
                            <path d="M13,1 C11.346,1 10,2.346 10,4 C10,5.654 11.346,7 13,7 C14.654,7 16,5.654 16,4 C16,2.346 14.654,1 13,1 M13,8 C10.794,8 9,6.206 9,4 C9,1.794 10.794,0 13,0 C15.206,0 17,1.794 17,4 C17,6.206 15.206,8 13,8" id="Fill-3"></path>
                            <path d="M4.5,15 L1.5,15 C0.673,15 0,14.327 0,13.5 C0,13.463 0.008,12.573 0.663,11.7 C1.041,11.195 1.557,10.796 2.196,10.512 C2.96,10.172 3.904,10 5.001,10 C5.18,10 5.357,10.005 5.528,10.014 C5.804,10.029 6.015,10.264 6.001,10.54 C5.987,10.816 5.751,11.028 5.475,11.013 C5.322,11.005 5.163,11.001 5.002,11.001 C1.108,11.001 1.005,13.38 1.002,13.504 C1.003,13.778 1.227,14.001 1.502,14.001 L4.502,14.001 C4.778,14.001 5.002,14.225 5.002,14.501 C5.002,14.777 4.778,15.001 4.502,15.001 L4.5,15 Z" id="Fill-5"></path>
                            <path d="M5,4 C3.897,4 3,4.897 3,6 C3,7.103 3.897,8 5,8 C6.103,8 7,7.103 7,6 C7,4.897 6.103,4 5,4 M5,9 C3.346,9 2,7.654 2,6 C2,4.346 3.346,3 5,3 C6.654,3 8,4.346 8,6 C8,7.654 6.654,9 5,9" id="Fill-7"></path>
                        </g>
                    </g>
                </g>
            </g>
        </g>
    </g>
</svg>