<?xml version="1.0" encoding="UTF-8"?>
<svg width="158px" height="48px" viewBox="0 0 158 48" version="1.1" xmlns="http://www.w3.org/2000/svg" xmlns:xlink="http://www.w3.org/1999/xlink">
    <!-- Generator: Sketch 46.2 (44496) - http://www.bohemiancoding.com/sketch -->
    <title>google</title>
    <desc>Created with Sketch.</desc>
    <defs>
        <rect id="path-1" x="0" y="0" width="158" height="48"></rect>
    </defs>
    <g id="onboarding" stroke="none" stroke-width="1" fill="none" fill-rule="evenodd">
        <g id="Log-in" transform="translate(-188.000000, -235.000000)">
            <g id="google" transform="translate(188.000000, 235.000000)">
                <g id="Rectangle-Copy" opacity="0.14305933">
                    <use fill="#000000" fill-rule="evenodd" xlink:href="#path-1"></use>
                    <rect stroke="#979797" stroke-width="1" x="0.5" y="0.5" width="157" height="47"></rect>
                </g>
                <path d="M25.8,19.35 C25.8,17.85 24.9,14.85 22.65,14.85 C21.75,14.85 20.7,15.45 20.7,17.4 C20.7,19.2 21.6,21.75 23.7,21.75 C23.7,21.75 25.8,21.6 25.8,19.35 L25.8,19.35 Z M24.9,26.7 L24.45,26.7 L24.45,26.7 C24,26.7 22.65,26.85 21.75,27.15 C20.7,27.45 19.5,28.2 19.5,29.7 C19.5,31.35 21,33 24,33 C26.25,33 27.6,31.5 27.6,30 C27.6,28.95 26.85,28.2 24.9,26.7 L24.9,26.7 Z M39,9 L15,9 C13.35,9 12,10.35 12,12 L12,36 C12,37.65 13.35,39 15,39 L39,39 C40.65,39 42,37.65 42,36 L42,12 C42,10.35 40.65,9 39,9 L39,9 Z M22.65,34.8 C18.45,34.8 16.5,32.4 16.5,30.3 C16.5,29.55 16.65,27.9 18.75,26.7 C19.95,25.95 21.45,25.5 23.4,25.35 C23.1,25.05 22.95,24.6 22.95,23.85 C22.95,23.55 22.95,23.4 23.1,23.1 L22.5,23.1 C19.5,23.1 17.7,20.85 17.7,18.6 C17.7,16.05 19.65,13.2 23.85,13.2 L30.15,13.2 L29.7,13.65 L28.65,14.7 L28.5,14.85 L27.45,14.85 C28.05,15.45 28.8,16.5 28.8,18.15 C28.8,20.25 27.75,21.3 26.4,22.2 C26.1,22.35 25.8,22.8 25.8,23.25 C25.8,23.7 26.1,24 26.4,24.15 C26.55,24.3 26.85,24.45 27.15,24.6 C28.35,25.5 30,26.55 30,28.95 C30,31.65 28.05,34.8 22.65,34.8 L22.65,34.8 Z M37.5,24 L34.5,24 L34.5,27 L33,27 L33,24 L30,24 L30,22.5 L33,22.5 L33,19.5 L34.5,19.5 L34.5,22.5 L37.5,22.5 L37.5,24 L37.5,24 Z" id="Shape" fill="#FFFFFF"></path>
                <text id="Google" font-family="Roboto-Regular, Roboto" font-size="16" font-weight="normal" fill-opacity="0.259001359" fill="#000000">
                    <tspan x="63" y="30">Google</tspan>
                </text>
            </g>
        </g>
    </g>
</svg>