<?xml version="1.0" encoding="UTF-8"?>
<svg width="60px" height="120px" viewBox="0 0 60 120" version="1.1" xmlns="http://www.w3.org/2000/svg" xmlns:xlink="http://www.w3.org/1999/xlink">
    <!-- Generator: Sketch 46.2 (44496) - http://www.bohemiancoding.com/sketch -->
    <title>Group 18</title>
    <desc>Created with Sketch.</desc>
    <defs></defs>
    <g id="multi-player-" stroke="none" stroke-width="1" fill="none" fill-rule="evenodd">
        <g id="Game-Qs-Locked" transform="translate(-300.000000, -163.000000)" fill="#000000">
            <g id="Group-18" transform="translate(302.000000, 165.000000)">
                <circle id="mask-copy-6" stroke-opacity="0.211899909" stroke="#CCCCCC" stroke-width="4" fill-opacity="0.0243149909" cx="58" cy="58" r="58"></circle>
                <path d="M41.2307692,67.4230769 C41.2307692,67.9113846 40.8344615,68.3076923 40.3461538,68.3076923 L22.6538462,68.3076923 C22.1655385,68.3076923 21.7692308,67.9113846 21.7692308,67.4230769 L21.7692308,53.2692308 C21.7692308,52.7809231 22.1655385,52.3846154 22.6538462,52.3846154 L40.3461538,52.3846154 C40.8344615,52.3846154 41.2307692,52.7809231 41.2307692,53.2692308 L41.2307692,67.4230769 Z M25.3076923,47.9615385 C25.3076923,44.5469231 28.0853846,41.7692308 31.5,41.7692308 C34.9146154,41.7692308 37.6923077,44.5469231 37.6923077,47.9615385 L37.6923077,50.6153846 L25.3076923,50.6153846 L25.3076923,47.9615385 Z M40.3461538,50.6153846 L39.4615385,50.6153846 L39.4615385,47.9615385 C39.4615385,43.5720769 35.8894615,40 31.5,40 C27.1105385,40 23.5384615,43.5720769 23.5384615,47.9615385 L23.5384615,50.6153846 L22.6538462,50.6153846 C21.1906923,50.6153846 20,51.8060769 20,53.2692308 L20,67.4230769 C20,68.8862308 21.1906923,70.0769231 22.6538462,70.0769231 L40.3461538,70.0769231 C41.8093077,70.0769231 43,68.8862308 43,67.4230769 L43,53.2692308 C43,51.8060769 41.8093077,50.6153846 40.3461538,50.6153846 L40.3461538,50.6153846 Z" id="Page-1" opacity="0.537477355"></path>
            </g>
        </g>
    </g>
</svg>