<?xml version="1.0" encoding="UTF-8"?>
<svg width="40px" height="42px" viewBox="0 0 40 42" version="1.1" xmlns="http://www.w3.org/2000/svg" xmlns:xlink="http://www.w3.org/1999/xlink">
    <!-- Generator: Sketch 46.2 (44496) - http://www.bohemiancoding.com/sketch -->
    <title>newQ-powerup</title>
    <desc>Created with Sketch.</desc>
    <defs>
        <rect id="path-1" x="0" y="0" width="40" height="40" rx="8"></rect>
        <polygon id="path-2" points="19.2 10.44945 19.2 0.00055 0.92171207 0.00055 0.92171207 10.44945 19.2 10.44945"></polygon>
    </defs>
    <g id="onboarding" stroke="none" stroke-width="1" fill="none" fill-rule="evenodd">
        <g id="Question-Tutorial" transform="translate(-74.000000, -587.000000)">
            <g id="Group-19" transform="translate(74.000000, 587.000000)">
                <g id="newQ-powerup">
                    <g id="Rectangle-4">
                        <use fill="#989595" fill-rule="evenodd" xlink:href="#path-1"></use>
                        <rect stroke="#979797" stroke-width="1" x="0.5" y="0.5" width="39" height="39" rx="8"></rect>
                    </g>
                    <g id="Group-9-Copy" transform="translate(0.000000, 29.000000)">
                        <rect id="Rectangle-7" fill="#777575" x="0" y="0" width="40" height="13" rx="6.5"></rect>
                        <text id="100" opacity="0.806272645" font-family="Roboto-Bold, Roboto" font-size="10" font-weight="bold" fill="#FFFFFF">
                            <tspan x="8.64892578" y="10"> 100</tspan>
                        </text>
                    </g>
                    <g id="Group-5" transform="translate(10.000000, 6.000000)">
                        <g id="Page-1">
                            <g id="Group-3" transform="translate(2.000000, 0.000000)">
                                <mask id="mask-3" fill="white">
                                    <use xlink:href="#path-2"></use>
                                </mask>
                                <g id="Clip-2"></g>
                                <path d="M19.0434133,7.31115 C18.8354133,7.09665 18.49728,7.09665 18.28928,7.31115 L17.06368,8.57395 C17.00928,6.30905 16.1271467,4.18495 14.5666133,2.57675 C12.95488,0.91575 10.8119467,0.00055 8.53248,0.00055 C5.36021333,0.00055 2.46741333,1.79795 0.98368,4.69205 C0.84608,4.96045 0.94528,5.29375 1.20554667,5.43675 C1.46581333,5.57865 1.78901333,5.47635 1.92661333,5.20795 C3.22474667,2.67355 5.75594667,1.10055 8.53248,1.10055 C12.57408,1.10055 15.87648,4.43025 15.9959467,8.56845 L14.7767467,7.31115 C14.5687467,7.09665 14.2306133,7.09665 14.0226133,7.31115 C13.8146133,7.52455 13.8146133,7.87435 14.0226133,8.08885 L16.1559467,10.28885 C16.26048,10.39665 16.3970133,10.44945 16.5335467,10.44945 C16.67008,10.44945 16.8066133,10.39555 16.9111467,10.28885 L19.04448,8.08885 C19.25248,7.87435 19.25248,7.52455 19.04448,7.31115 L19.0434133,7.31115 Z" id="Fill-1" fill="#FFFFFF" mask="url(#mask-3)"></path>
                            </g>
                            <path d="M18.70384,12.2767805 C18.4332881,12.1273885 18.0973159,12.2350898 17.9542782,12.5176607 C16.6048452,15.1858715 13.9736172,16.8419224 11.0873607,16.8419224 C6.88604463,16.8419224 3.45314029,13.3364215 3.32895254,8.97973364 L4.59633292,10.3034163 C4.7049972,10.418066 4.84692607,10.4724957 4.98885493,10.4724957 C5.13078379,10.4724957 5.27271265,10.4169079 5.38137693,10.3034163 C5.59759669,10.0787493 5.59759669,9.7104806 5.38137693,9.48465547 L3.16373847,7.16850029 C2.94751872,6.94383324 2.59602303,6.94383324 2.37980328,7.16850029 L0.162164813,9.48465547 C-0.0540549375,9.7104806 -0.0540549375,10.0787493 0.162164813,10.3034163 C0.378384563,10.5292415 0.729880259,10.5292415 0.946100009,10.3034163 L2.22013331,8.97278518 C2.27668309,11.358425 3.19367659,13.5946728 4.81587913,15.2877823 C6.49130499,17.0364794 8.71892282,18 11.0884695,18 C14.3860979,18 17.3932157,16.1077012 18.9355832,13.0607991 C19.0786209,12.7782281 18.9755007,12.4273306 18.7049488,12.2767805 L18.70384,12.2767805 Z" id="Fill-4" fill="#FFFFFF"></path>
                        </g>
                    </g>
                </g>
            </g>
        </g>
    </g>
</svg>