<?xml version="1.0" encoding="UTF-8"?>
<svg width="115px" height="110px" viewBox="0 0 115 110" version="1.1" xmlns="http://www.w3.org/2000/svg" xmlns:xlink="http://www.w3.org/1999/xlink">
    <!-- Generator: Sketch 46.2 (44496) - http://www.bohemiancoding.com/sketch -->
    <title>picture</title>
    <desc>Created with Sketch.</desc>
    <defs></defs>
    <g id="onboarding" stroke="none" stroke-width="1" fill="none" fill-rule="evenodd">
        <g id="Splash-Screen" transform="translate(-122.000000, -240.000000)" fill="#D0D2D3">
            <g id="picture" transform="translate(123.000000, 240.000000)">
                <path d="M107.933993,30.2243948 L103.49835,29.801676 L103.075908,29.801676 L103.075908,29.801676 C102.019802,29.5903166 100.963696,28.744879 100.752475,27.6880819 L100.752475,27.2653631 L100.752475,27.2653631 L95.8943894,5.49534451 C95.049505,2.11359404 91.8811881,9.28479515e-13 88.5016502,0.845437616 L4.22442244,19.4450652 C0.844884488,20.2905028 -1.26732673,23.4608939 -0.422442244,26.8426443 L9.71617162,72.4962756 L9.71617162,72.4962756 L9.71617162,72.707635 L9.71617162,73.1303538 L9.71617162,73.3417132 L9.71617162,73.5530726 L9.71617162,73.5530726 L7.6039604,91.9413408 C7.18151815,95.3230912 9.71617162,98.4934823 13.0957096,98.9162011 L98.8514851,109.061453 C102.231023,109.484171 105.39934,106.947858 105.821782,103.566108 L108.990099,76.3007449 L110.046205,67.8463687 L113.636964,36.9878957 C113.848185,33.8175047 111.524752,30.6471136 107.933993,30.2243948 L107.933993,30.2243948 Z M43.5115512,19.867784 L43.9339934,19.867784 L85.5445545,10.5679702 C87.0231023,10.1452514 88.5016502,11.2020484 88.9240924,12.6815642 C88.9240924,12.6815642 88.9240924,12.6815642 88.9240924,12.8929236 C88.9240924,12.8929236 88.9240924,12.8929236 88.9240924,13.1042831 L91.8811881,26.6312849 L91.8811881,26.6312849 C91.8811881,26.6312849 91.8811881,26.6312849 91.8811881,26.8426443 L91.8811881,27.0540037 C91.8811881,27.8994413 91.2475248,28.5335196 90.4026403,28.5335196 L90.4026403,28.5335196 L89.980198,28.5335196 L82.7986799,27.6880819 L70.7590759,26.2085661 L43.7227723,23.038175 L43.5115512,23.038175 L43.5115512,23.038175 C42.8778878,22.8268156 42.4554455,22.4040968 42.4554455,21.5586592 C42.6666667,20.5018622 43.0891089,20.0791434 43.5115512,19.867784 L43.5115512,19.867784 Z M14.9966997,28.3221601 L13.7293729,39.1014898 L13.7293729,39.1014898 L13.7293729,39.5242086 L13.7293729,39.5242086 C13.5181518,40.1582868 13.0957096,40.5810056 12.4620462,40.5810056 C11.8283828,40.5810056 11.4059406,40.1582868 11.1947195,39.735568 C11.1947195,39.5242086 10.9834983,39.3128492 10.9834983,39.3128492 L9.08250825,30.6471136 C9.08250825,30.6471136 9.08250825,30.6471136 9.08250825,30.4357542 C9.08250825,30.4357542 9.08250825,30.4357542 9.08250825,30.2243948 C8.87128713,28.744879 9.71617162,27.2653631 11.1947195,27.0540037 L13.0957096,26.6312849 C13.3069307,26.6312849 13.3069307,26.4199255 13.5181518,26.4199255 L13.5181518,26.4199255 C14.3630363,26.4199255 14.7854785,27.0540037 14.9966997,27.6880819 L14.9966997,27.6880819 C14.9966997,28.1108007 14.9966997,28.1108007 14.9966997,28.3221601 L14.9966997,28.3221601 Z M104.343234,41.6378026 C104.343234,41.849162 104.343234,41.849162 104.343234,41.6378026 L104.343234,41.849162 L104.132013,42.6945996 L100.963696,68.6918063 L99.6963696,79.2597765 L97.5841584,97.4366853 C97.5841584,97.4366853 97.5841584,97.4366853 97.5841584,97.6480447 C97.5841584,97.6480447 97.5841584,97.6480447 97.5841584,97.8594041 C97.3729373,99.3389199 96.1056106,100.184358 94.6270627,100.184358 L94.4158416,100.184358 L94.2046205,100.184358 L36.7524752,93.4208566 L19.009901,91.3072626 L18.7986799,91.3072626 L18.5874587,91.3072626 C17.1089109,91.0959032 16.2640264,89.8277467 16.2640264,88.3482309 C16.2640264,88.3482309 16.2640264,88.3482309 16.2640264,88.1368715 C16.2640264,88.1368715 16.2640264,88.1368715 16.2640264,87.9255121 L18.1650165,72.4962756 L23.0231023,32.1266294 C23.0231023,32.1266294 23.0231023,32.1266294 23.0231023,31.91527 C23.0231023,31.91527 23.0231023,31.91527 23.0231023,31.7039106 C23.2343234,30.2243948 24.7128713,29.1675978 26.1914191,29.3789572 L94.4158416,37.4106145 L101.808581,38.2560521 C102.442244,38.2560521 103.075908,38.6787709 103.49835,38.8901304 C104.132013,39.9469274 104.343234,40.792365 104.343234,41.6378026 L104.343234,41.6378026 Z" id="Shape"></path>
                <path d="M88.5016502,46.2877095 C84.9108911,45.8649907 81.7425743,48.4013035 81.320132,51.783054 C81.320132,52.6284916 81.320132,53.4739292 81.5313531,54.1080074 C82.1650165,56.6443203 84.2772277,58.5465549 87.0231023,58.7579143 L87.6567657,58.7579143 C90.8250825,58.7579143 93.7821782,56.4329609 94.2046205,53.0512104 C94.6270627,49.8808194 92.0924092,46.7104283 88.5016502,46.2877095 L88.5016502,46.2877095 Z" id="Shape"></path>
                <path d="M88.5016502,85.8119181 L86.3894389,82.4301676 L81.5313531,75.0325885 L75.6171617,65.7327747 L74.9834983,64.6759777 C74.5610561,64.0418994 73.7161716,63.4078212 72.8712871,63.4078212 C72.0264026,63.4078212 71.1815182,63.6191806 70.5478548,64.2532588 L68.2244224,66.5782123 C68.2244224,66.7895717 68.0132013,66.7895717 67.8019802,66.7895717 C67.379538,67.0009311 66.9570957,67.2122905 66.5346535,67.4236499 L65.689769,67.4236499 C64.8448845,67.4236499 64.2112211,67.0009311 63.7887789,66.3668529 C63.5775578,66.1554935 63.5775578,65.9441341 63.3663366,65.7327747 L56.6072607,55.3761639 C55.9735974,54.5307263 54.9174917,53.6852886 53.8613861,53.6852886 C52.5940594,53.4739292 51.5379538,53.896648 50.6930693,54.7420857 L28.7260726,75.6666667 L26.8250825,77.3575419 L26.4026403,77.7802607 C26.1914191,78.2029795 25.980198,78.6256983 25.7689769,79.0484171 C25.5577558,80.527933 26.6138614,81.7960894 28.0924092,81.7960894 L28.0924092,81.7960894 L34.0066007,82.4301676 L35.9075908,82.641527 L36.330033,82.641527 L42.2442244,83.2756052 L53.2277228,84.5437616 L57.6633663,84.9664804 L59.1419142,85.1778399 L59.5643564,85.1778399 L67.5907591,86.0232775 L72.2376238,86.6573557 L80.4752475,87.7141527 L80.8976898,87.7141527 L83.6435644,88.1368715 L86.8118812,88.5595903 C87.8679868,88.7709497 88.9240924,87.9255121 88.9240924,86.8687151 C88.9240924,86.4459963 88.9240924,86.0232775 88.7128713,85.8119181 L88.5016502,85.8119181 L88.5016502,85.8119181 Z" id="Shape"></path>
            </g>
        </g>
    </g>
</svg>