<?xml version="1.0" encoding="UTF-8"?>
<svg width="40px" height="40px" viewBox="0 0 40 40" version="1.1" xmlns="http://www.w3.org/2000/svg" xmlns:xlink="http://www.w3.org/1999/xlink">
    <!-- Generator: Sketch 46.2 (44496) - http://www.bohemiancoding.com/sketch -->
    <title>steps</title>
    <desc>Created with Sketch.</desc>
    <defs></defs>
    <g id="multi-player-" stroke="none" stroke-width="1" fill="none" fill-rule="evenodd">
        <g id="Game-Qs-unlocked" transform="translate(-20.000000, -92.000000)">
            <g id="notification" transform="translate(0.000000, 80.000000)">
                <g id="steps" transform="translate(20.000000, 12.000000)">
                    <circle id="mask" fill-opacity="0.113677536" fill="#000000" cx="20" cy="20" r="20"></circle>
                    <g id="Page-1" transform="translate(12.000000, 9.000000)" fill="#989595">
                        <path d="M12.4285714,1.16695841 C11.544,1.16695841 11.0091429,2.28840543 10.7165714,3.22897391 C10.1988571,4.88838876 10.1428571,6.82904059 10.1428571,7.58522964 C10.1428571,9.13845128 10.5108571,10.52013 11.1794286,11.474702 C11.8022857,12.3639243 12.6285714,12.8330416 13.5714286,12.8330416 C14.6182857,12.8330416 15.2034286,12.4071018 15.5291429,11.4105193 C15.8571429,10.4069351 15.8571429,8.97274319 15.8571429,7.58522964 C15.8571429,4.10769359 14.2868571,1.16695841 12.4285714,1.16695841 M13.5714286,14 C12.2628571,14 11.0834286,13.3453363 10.2491429,12.1527048 C9.432,10.9845795 9,9.40685171 9,7.58522964 C9,6.77419355 9.06057143,4.69117279 9.62742857,2.87538551 C10.368,0.499458198 11.56,0 12.4285714,0 C13.7085714,0 14.888,0.830874385 15.7508571,2.3397516 C16.5565714,3.75060432 17,5.61423689 17,7.58522964 C17,9.06726682 17,10.5971493 16.6137143,11.7792782 C16.1325714,13.2531466 15.1085714,14 13.5714286,14" id="Fill-1"></path>
                        <path d="M11.2076831,16.4464572 C11.2256903,17.1303886 11.2833133,17.8803133 11.4729892,18.4970513 C11.8283313,19.6501355 12.4753902,19.7989206 13,19.7989206 C13.5246098,19.7989206 14.1716687,19.6513354 14.5270108,18.4970513 C14.7166867,17.8791134 14.7755102,17.1303886 14.7923169,16.4464572 C14.2605042,16.5760442 13.6434574,16.6492369 12.9987995,16.6492369 C12.3541417,16.6492369 11.7370948,16.578444 11.2052821,16.4464572 L11.2076831,16.4464572 Z M13.0012005,20.9988001 C12.0828331,20.9988001 10.8727491,20.6256376 10.3265306,18.8510158 C10,17.7903223 10,16.5244494 10,15.5993423 C10,15.3917631 10.1080432,15.1985825 10.2845138,15.0893935 C10.4609844,14.9802045 10.6818727,14.9706054 10.8679472,15.0629961 C11.3529412,15.3053718 12.15006,15.4493573 13,15.4493573 C13.84994,15.4493573 14.6482593,15.3053718 15.1320528,15.0629961 C15.3181273,14.9706054 15.5390156,14.9802045 15.7154862,15.0893935 C15.8919568,15.1985825 16,15.3917631 16,15.5993423 C16,16.5220496 16,17.7891224 15.6734694,18.8510158 C15.1272509,20.6256376 13.9171669,21 12.9987995,21 L13.0012005,20.9988001 Z" id="Fill-3"></path>
                        <path d="M4.57142857,3.16695841 C2.71314286,3.16695841 1.14285714,6.10769359 1.14285714,9.58522964 C1.14285714,10.9727432 1.14285714,12.4069351 1.47085714,13.4105193 C1.79657143,14.4082687 2.38171429,14.8330416 3.42857143,14.8330416 C4.37142857,14.8330416 5.19885714,14.3627574 5.82057143,13.474702 C6.48914286,12.52013 6.85714286,11.1384513 6.85714286,9.58522964 C6.85714286,8.82904059 6.80114286,6.88838876 6.28342857,5.22897391 C5.99085714,4.28840543 5.45485714,3.16695841 4.57142857,3.16695841 M3.42857143,16 C1.89142857,16 0.867428571,15.2531466 0.386285714,13.7792782 C0,12.5959823 0,11.0649329 0,9.58522964 C0,7.61423689 0.443428571,5.75060432 1.24914286,4.3397516 C2.11085714,2.83087439 3.29142857,2 4.57142857,2 C5.44114286,2 6.63314286,2.49829124 7.37257143,4.87538551 C7.93828571,6.69233975 8,8.77419355 8,9.58522964 C8,11.4068517 7.568,12.9857464 6.75085714,14.1527048 C5.91657143,15.3453363 4.73714286,16 3.42857143,16" id="Fill-5"></path>
                        <path d="M2.20888355,18.4464572 C2.22689076,19.1303886 2.28451381,19.8803133 2.47418968,20.4970513 C2.82953181,21.6501355 3.47659064,21.7989206 4.00120048,21.7989206 C4.52581032,21.7989206 5.17286915,21.6513354 5.52821128,20.4970513 C5.71788715,19.8791134 5.77671068,19.1303886 5.79351741,18.4464572 C5.26170468,18.5760442 4.64465786,18.6492369 4.00120048,18.6492369 C3.3577431,18.6492369 2.7394958,18.578444 2.20768307,18.4464572 L2.20888355,18.4464572 Z M4.00120048,22.9988001 C3.08283313,22.9988001 1.8727491,22.6256376 1.32653061,20.8510158 C1,19.7903223 1,18.5244494 1,17.5993423 C1,17.3917631 1.10804322,17.1985825 1.28451381,17.0893935 C1.46098439,16.9802045 1.68187275,16.9706054 1.86794718,17.0629961 C2.35294118,17.3053718 3.15006002,17.4493573 4,17.4493573 C4.84993998,17.4493573 5.6482593,17.3053718 6.13205282,17.0629961 C6.31812725,16.9706054 6.53901561,16.9802045 6.71548619,17.0893935 C6.89195678,17.1985825 7,17.3917631 7,17.5993423 C7,18.5220496 7,19.7891224 6.67346939,20.8510158 C6.1272509,22.6256376 4.91716687,23 3.99879952,23 L4.00120048,22.9988001 Z" id="Fill-7"></path>
                    </g>
                </g>
            </g>
        </g>
    </g>
</svg>