<?xml version="1.0" encoding="UTF-8"?>
<svg width="40px" height="42px" viewBox="0 0 40 42" version="1.1" xmlns="http://www.w3.org/2000/svg" xmlns:xlink="http://www.w3.org/1999/xlink">
    <!-- Generator: Sketch 46.2 (44496) - http://www.bohemiancoding.com/sketch -->
    <title>time-powerup</title>
    <desc>Created with Sketch.</desc>
    <defs>
        <rect id="path-1" x="0" y="0" width="40" height="40" rx="8"></rect>
        <polygon id="path-2" points="0.0869833699 3.51971634e-15 5.03991016 3.51971634e-15 5.03991016 4.54816099 0.0869833699 4.54816099 0.0869833699 0"></polygon>
    </defs>
    <g id="onboarding" stroke="none" stroke-width="1" fill="none" fill-rule="evenodd">
        <g id="Question-Tutorial" transform="translate(-160.000000, -587.000000)">
            <g id="Group-19" transform="translate(74.000000, 587.000000)">
                <g id="time-powerup" transform="translate(86.000000, 0.000000)">
                    <g id="Group-12">
                        <g id="Rectangle-4-Copy">
                            <use fill="#989595" fill-rule="evenodd" xlink:href="#path-1"></use>
                            <rect stroke="#979797" stroke-width="1" x="0.5" y="0.5" width="39" height="39" rx="8"></rect>
                        </g>
                        <g id="Group-4" transform="translate(11.000000, 5.000000)">
                            <g id="Page-1">
                                <g id="Group-3" transform="translate(13.655080, 0.000000)">
                                    <mask id="mask-3" fill="white">
                                        <use xlink:href="#path-2"></use>
                                    </mask>
                                    <g id="Clip-2"></g>
                                    <path d="M4.49086203,4.54816099 C4.4593754,4.54816099 4.42690481,4.54518885 4.39443422,4.53825387 C4.12778182,4.48574613 3.9555893,4.22419814 4.00872299,3.95571517 C4.04020963,3.79621053 4.05595294,3.63175232 4.05595294,3.46729412 C4.05595294,2.10209288 2.95195294,0.990513932 1.59605989,0.990513932 C1.30480856,0.990513932 1.01946096,1.04104025 0.748872727,1.14209288 C0.494027807,1.23521981 0.210648128,1.10345511 0.117172193,0.847851393 C0.0236962567,0.590266254 0.154562567,0.304941176 0.409407487,0.210823529 C0.789214973,0.0701424149 1.18771765,-0.000198142415 1.59605989,-0.000198142415 C3.49509733,-0.000198142415 5.03991016,1.55521981 5.03991016,3.46729412 C5.03991016,3.69813003 5.01727914,3.92599381 4.97300107,4.15088545 C4.92675508,4.38568421 4.72110802,4.54816099 4.49086203,4.54816099" id="Fill-1" fill="#FFFFFF" mask="url(#mask-3)"></path>
                                </g>
                                <path d="M0.551016043,4.56262539 C0.321754011,4.56262539 0.117090909,4.40113932 0.0698609626,4.16634056 C0.0236149733,3.93649536 0,3.70268731 0,3.46788854 C0,1.55581424 1.54481283,0.00039628483 3.44385027,0.00039628483 C3.85120856,0.00039628483 4.25069519,0.0717275542 4.62951872,0.210427245 C4.88436364,0.304544892 5.01522995,0.588879257 4.92175401,0.847455108 C4.82827807,1.10504025 4.54588235,1.23581424 4.29005348,1.14169659 C4.01946524,1.04064396 3.73411765,0.991108359 3.44286631,0.991108359 C2.08697326,0.991108359 0.982973262,2.10268731 0.982973262,3.46788854 C0.982973262,3.63531889 0.999700535,3.80373994 1.03315508,3.96621672 C1.08727273,4.2356904 0.916064171,4.49723839 0.649411765,4.55073684 C0.615957219,4.55767183 0.582502674,4.56064396 0.550032086,4.56064396 L0.551016043,4.56262539 Z" id="Fill-4" fill="#FFFFFF"></path>
                                <path d="M0.983957219,10.4024768 C0.983957219,5.75900929 4.7357861,1.98142415 9.34759358,1.98142415 C13.9594011,1.98142415 17.7112299,5.75900929 17.7112299,10.4024768 C17.7112299,15.0459443 13.9594011,18.8235294 9.34759358,18.8235294 C4.7357861,18.8235294 0.983957219,15.0459443 0.983957219,10.4024768 L0.983957219,10.4024768 Z M16.0581818,16.9540557 C17.7594439,15.1886068 18.6951872,12.8683591 18.6951872,10.4024768 C18.6951872,7.88804954 17.7230374,5.52520124 15.9578182,3.74786378 C14.1925989,1.97052632 11.844877,0.990712074 9.34759358,0.990712074 C6.85031016,0.990712074 4.50357219,1.9695356 2.73835294,3.74786378 C0.97313369,5.52619195 0.000983957219,7.88904025 0.000983957219,10.4024768 C0.000983957219,12.8683591 0.936727273,15.1886068 2.6379893,16.9540557 L0.636620321,18.9681734 C0.444748663,19.1623529 0.444748663,19.4764087 0.636620321,19.6695975 C0.733048128,19.7666873 0.858994652,19.8142415 0.984941176,19.8142415 C1.1108877,19.8142415 1.23683422,19.7656966 1.33326203,19.6695975 L3.3602139,17.6287307 C5.03786096,19.0434675 7.1346738,19.8142415 9.3495615,19.8142415 C11.5644492,19.8142415 13.661262,19.0434675 15.3389091,17.6287307 L17.365861,19.6695975 C17.4622888,19.7666873 17.5882353,19.8142415 17.7141818,19.8142415 C17.8401283,19.8142415 17.9660749,19.7656966 18.0625027,19.6695975 C18.2543743,19.4764087 18.2543743,19.1623529 18.0625027,18.9681734 L16.0611337,16.9540557 L16.0581818,16.9540557 Z" id="Fill-6" fill="#FFFFFF"></path>
                                <path d="M13.2834225,9.90712074 L9.83957219,9.90712074 L9.83957219,6.43962848 C9.83957219,6.16619195 9.61916578,5.94427245 9.34759358,5.94427245 C9.07602139,5.94427245 8.85561497,6.16619195 8.85561497,6.43962848 L8.85561497,9.90712074 L5.41176471,9.90712074 C5.14019251,9.90712074 4.9197861,10.1290402 4.9197861,10.4024768 C4.9197861,10.6759133 5.14019251,10.8978328 5.41176471,10.8978328 L8.85561497,10.8978328 L8.85561497,14.3653251 C8.85561497,14.6387616 9.07602139,14.8606811 9.34759358,14.8606811 C9.61916578,14.8606811 9.83957219,14.6387616 9.83957219,14.3653251 L9.83957219,10.8978328 L13.2834225,10.8978328 C13.5549947,10.8978328 13.7754011,10.6759133 13.7754011,10.4024768 C13.7754011,10.1290402 13.5549947,9.90712074 13.2834225,9.90712074" id="Fill-8" fill="#FFFFFF"></path>
                            </g>
                        </g>
                    </g>
                    <g id="Group-9-Copy" transform="translate(0.000000, 29.000000)">
                        <rect id="Rectangle-7" fill="#777575" x="0" y="0" width="40" height="13" rx="6.5"></rect>
                        <text id="100" opacity="0.806272645" font-family="Roboto-Bold, Roboto" font-size="10" font-weight="bold" fill="#FFFFFF">
                            <tspan x="8.64892578" y="10"> 100</tspan>
                        </text>
                    </g>
                </g>
            </g>
        </g>
    </g>
</svg>